<svg width="0" height="0" class="hidden">
  <symbol aria-hidden="true" data-prefix="fas" data-icon="chart-line" xmlns="http://www.w3.org/2000/svg" viewBox="0 0 512 512" id="chart-line-solid">
    <path fill="black" d="M496 384H64V80c0-8.84-7.16-16-16-16H16C7.16 64 0 71.16 0 80v336c0 17.67 14.33 32 32 32h464c8.84 0 16-7.16 16-16v-32c0-8.84-7.16-16-16-16zM464 96H345.94c-21.38 0-32.09 25.85-16.97 40.97l32.4 32.4L288 242.75l-73.37-73.37c-12.5-12.5-32.76-12.5-45.25 0l-68.69 68.69c-6.25 6.25-6.25 16.38 0 22.63l22.62 22.62c6.25 6.25 16.38 6.25 22.63 0L192 237.25l73.37 73.37c12.5 12.5 32.76 12.5 45.25 0l96-96 32.4 32.4c15.12 15.12 40.97 4.41 40.97-16.97V112c.01-8.84-7.15-16-15.99-16z"></path>
  </symbol>
  <symbol aria-hidden="true" data-prefix="fas" data-icon="heart" xmlns="http://www.w3.org/2000/svg" viewBox="0 0 512 512" id="child-solid">
    <path fill="#0065FC" d="M462.3 62.6C407.5 15.9 326 24.3 275.7 76.2L256 96.5l-19.7-20.3C186.1 24.3 104.5 15.9 49.7 62.6c-62.8 53.6-66.1 149.8-9.9 207.9l193.5 199.8c12.5 12.9 32.8 12.9 45.3 0l193.5-199.8c56.3-58.1 53-154.3-9.8-207.9z"></path>
  </symbol>
  <symbol aria-hidden="true" data-prefix="fas" data-icon="child" xmlns="http://www.w3.org/2000/svg" viewBox="0 0 384 512" id="dog-solid">
    <path fill="#0065FC" d="M120 72c0-39.765 32.235-72 72-72s72 32.235 72 72c0 39.764-32.235 72-72 72s-72-32.236-72-72zm254.627 1.373c-12.496-12.497-32.758-12.497-45.254 0L242.745 160H141.254L54.627 73.373c-12.496-12.497-32.758-12.497-45.254 0-12.497 12.497-12.497 32.758 0 45.255L104 213.254V480c0 17.673 14.327 32 32 32h16c17.673 0 32-14.327 32-32V368h16v112c0 17.673 14.327 32 32 32h16c17.673 0 32-14.327 32-32V213.254l94.627-94.627c12.497-12.497 12.497-32.757 0-45.254z"></path>
  </symbol>
  <symbol aria-hidden="true" data-prefix="fas" data-icon="dog" xmlns="http://www.w3.org/2000/svg" viewBox="0 0 576 512" id="heart-solid">
    <path fill="#0065FC" d="M298.06 224L448 277.55V496a16 16 0 01-16 16h-64a16 16 0 01-16-16V384H192v112a16 16 0 01-16 16h-64a16 16 0 01-16-16V282.09C58.84 268.84 32 233.66 32 192a32 32 0 0164 0 32.06 32.06 0 0032 32zM544 112v32a64 64 0 01-64 64h-32v35.58l-128-45.71V48c0-14.25 17.22-21.39 27.31-11.31L374.59 64h53.63c10.91 0 23.75 7.92 28.62 17.69L464 96h64a16 16 0 0116 16zm-112 0a16 16 0 10-16 16 16 16 0 0016-16z"></path>
  </symbol>
  <symbol aria-hidden="true" data-prefix="fas" data-icon="info" xmlns="http://www.w3.org/2000/svg" viewBox="0 0 192 512" id="info-solid">
    <path fill="#0065FC" d="M20 424.229h20V279.771H20c-11.046 0-20-8.954-20-20V212c0-11.046 8.954-20 20-20h112c11.046 0 20 8.954 20 20v212.229h20c11.046 0 20 8.954 20 20V492c0 11.046-8.954 20-20 20H20c-11.046 0-20-8.954-20-20v-47.771c0-11.046 8.954-20 20-20zM96 0C56.235 0 24 32.235 24 72s32.235 72 72 72 72-32.235 72-72S135.764 0 96 0z"></path>
  </symbol>
  <symbol aria-hidden="true" data-prefix="fas" data-icon="map-marker-alt" xmlns="http://www.w3.org/2000/svg" viewBox="0 0 384 512" id="map-marker-alt-solid">
    <path fill="#0065FC" d="M172.268 501.67C26.97 291.031 0 269.413 0 192 0 85.961 85.961 0 192 0s192 85.961 192 192c0 77.413-26.97 99.031-172.268 309.67-9.535 13.774-29.93 13.773-39.464 0zM192 272c44.183 0 80-35.817 80-80s-35.817-80-80-80-80 35.817-80 80 35.817 80 80 80z"></path>
  </symbol>
  <symbol aria-hidden="true" data-prefix="fas" data-icon="star" xmlns="http://www.w3.org/2000/svg" viewBox="0 0 576 512" id="money-bill-wave-solid">
    <path fill="#0065FC" d="M259.3 17.8L194 150.2 47.9 171.5c-26.2 3.8-36.7 36.1-17.7 54.6l105.7 103-25 145.5c-4.5 26.3 23.2 46 46.4 33.7L288 439.6l130.7 68.7c23.2 12.2 50.9-7.4 46.4-33.7l-25-145.5 105.7-103c19-18.5 8.5-50.8-17.7-54.6L382 150.2 316.7 17.8c-11.7-23.6-45.6-23.9-57.4 0z"></path>
  </symbol>
</svg>